<?xml version="1.0" encoding="UTF-8" standalone="no"?>
<!-- Created with Inkscape (http://www.inkscape.org/) -->

<svg
   xmlns:dc="http://purl.org/dc/elements/1.1/"
   xmlns:cc="http://creativecommons.org/ns#"
   xmlns:rdf="http://www.w3.org/1999/02/22-rdf-syntax-ns#"
   xmlns:svg="http://www.w3.org/2000/svg"
   xmlns="http://www.w3.org/2000/svg"
   xmlns:sodipodi="http://sodipodi.sourceforge.net/DTD/sodipodi-0.dtd"
   xmlns:inkscape="http://www.inkscape.org/namespaces/inkscape"
   version="1.0"
   width="800"
   height="930"
   id="svg2"
   inkscape:version="0.92.5 (2060ec1f9f, 2020-04-08)"
   sodipodi:docname="Polizei_SV_Bremen_sw.svg"
   inkscape:export-filename="/home/tim/badminton/PSV/sponsor_erste_mannschaft/Polizei_SV_Bremen_sw_1000x1166.png"
   inkscape:export-xdpi="112.5"
   inkscape:export-ydpi="112.5">
  <metadata
     id="metadata9">
    <rdf:RDF>
      <cc:Work
         rdf:about="">
        <dc:format>image/svg+xml</dc:format>
        <dc:type
           rdf:resource="http://purl.org/dc/dcmitype/StillImage" />
        <dc:title />
      </cc:Work>
    </rdf:RDF>
  </metadata>
  <sodipodi:namedview
     pagecolor="#999999"
     bordercolor="#666666"
     borderopacity="1"
     objecttolerance="10"
     gridtolerance="10"
     guidetolerance="10"
     inkscape:pageopacity="0"
     inkscape:pageshadow="2"
     inkscape:window-width="5120"
     inkscape:window-height="2096"
     id="namedview7"
     showgrid="false"
     inkscape:zoom="0.98007319"
     inkscape:cx="-1315.0026"
     inkscape:cy="546.17161"
     inkscape:window-x="0"
     inkscape:window-y="27"
     inkscape:window-maximized="1"
     inkscape:current-layer="layer1" />
  <defs
     id="defs4" />
  <g
     inkscape:groupmode="layer"
     id="layer1"
     inkscape:label="BG" />
  <g
     inkscape:groupmode="layer"
     id="layer3"
     inkscape:label="Wappen"
     style="display:inline" />
  <g
     inkscape:groupmode="layer"
     id="layer2"
     inkscape:label="P 1"
     style="display:inline">
    <g
       id="g4143">
      <path
         id="path3376-3"
         d="M 141.49805 7.7695312 L 64.705078 129.33594 C 102.33086 144.82209 140.09533 157.47955 177.76953 167.5918 L 177.76953 29.023438 C 164.88305 22.840668 152.77915 15.768041 141.49805 7.7695312 z M 653.55078 7.7695312 C 642.67238 15.482591 631.06918 22.435951 618.69531 28.457031 L 618.69531 165.89258 C 655.22333 156.01411 691.77763 143.94568 728.36133 129.33594 L 730.06055 128.76953 L 653.55078 7.7695312 z M 321.72266 65.578125 L 321.72266 193.37891 C 372.71697 197.9086 423.65082 197.55028 474.74414 192.5293 L 474.74414 65.578125 C 450.00475 68.291965 424.38013 69.827308 397.66602 70.679688 C 371.45364 69.843356 346.03813 68.200555 321.72266 65.578125 z M 617.8457 166.74219 C 570.3934 179.51813 522.96797 188.39409 475.59375 193.0957 L 475.59375 314.0957 C 522.98583 309.51986 570.45107 300.70935 617.8457 287.45898 L 617.8457 166.74219 z M 178.61914 168.72461 L 178.61914 286.89062 C 225.92743 300.04715 273.28445 309.05775 320.58984 313.8125 L 320.58984 193.94531 C 273.22415 189.69128 225.89443 181.32246 178.61914 168.72461 z M 6.046875 221.7168 C 59.571759 329.37783 77.235191 447.80115 78.589844 571.11328 C 80.783277 683.15347 122.25361 746.189 177.76953 791.57617 L 177.76953 287.74219 C 120.97349 271.9081 64.272438 250.03622 7.4628906 222.2832 L 6.046875 221.7168 z M 789.00195 221.7168 L 787.58594 222.2832 C 731.26144 250.48862 675.00595 272.23728 618.69531 288.02539 L 618.69531 790.44336 C 673.5092 745.1407 714.28386 682.2144 716.45898 571.11328 C 717.81354 447.80105 735.47707 329.37792 789.00195 221.7168 z M 474.74414 315.22852 C 446.90989 317.87529 418.99813 319.03604 391.09375 318.73242 C 423.53706 325.10855 451.73881 337.99799 474.74414 355.32227 L 474.74414 315.22852 z M 368.48242 413.2168 L 368.48242 563.14453 C 396.12898 558.65998 414.39739 548.43282 426.22461 536.0625 C 439.89178 521.76774 445.49609 504.06581 445.49609 486.60547 C 445.49609 468.95962 440.0511 451.67185 426.63477 438.07812 C 414.94308 426.23188 396.67552 416.66018 368.48242 413.2168 z M 474.74414 619.26758 C 446.5831 640.96044 410.60457 656.21169 368.48242 661.25 L 368.48242 756.4082 L 321.72266 756.4082 L 321.72266 872.33789 C 354.42521 888.41644 382.54884 904.43121 397.66602 920.50977 C 413.01289 904.18683 441.39687 887.81122 474.74414 871.48828 L 474.74414 619.26758 z "
         style="display:inline;fill:#000000;fill-opacity:1;fill-rule:evenodd;stroke:none;stroke-width:1px;stroke-linecap:butt;stroke-linejoin:miter;stroke-opacity:1" />
      <rect
         y="330.18143"
         x="302.00006"
         height="107.79079"
         width="185.38158"
         id="rect4174"
         style="display:inline;fill:#0000ff;fill-opacity:0;stroke:#0000ff;stroke-width:0;stroke-miterlimit:4;stroke-dasharray:none;stroke-opacity:0" />
      <rect
         y="326.92914"
         x="303.85852"
         height="418.61853"
         width="50.178471"
         id="rect4176"
         style="display:inline;fill:#0000ff;fill-opacity:0;stroke:#0000ff;stroke-width:0;stroke-miterlimit:4;stroke-dasharray:none;stroke-opacity:0" />
      <path
         style="fill:#000000;fill-opacity:0;fill-rule:evenodd;stroke:#000000;stroke-width:9.068;stroke-linecap:butt;stroke-linejoin:miter;stroke-miterlimit:4;stroke-dasharray:none;stroke-opacity:1"
         id="path3322-7"
         d="m 251.11663,326.90877 0,72.54316 32.30438,0 0,344.58004 72.54316,0 0,-93.79605 c 108.4406,-7.85542 174.55699,-84.51686 174.55699,-163.50548 0,-82.39889 -72.67465,-161.32041 -189.57569,-159.82167 l -89.82884,0 z m 104.84754,72.82654 c 76.11247,3.77668 102.01382,46.388 102.01382,86.99513 0,40.41143 -26.62669,84.2801 -102.01382,90.67895 l 0,-177.67408 z"
         inkscape:connector-curvature="0" />
    </g>
  </g>
</svg>
